# xmcd
#
# Track frame offsets: 
#        150
#        19544
#        34901
#        51786
#        69442
#        87822
#        104886
#        125016
#        139722
#        159686
#        178189
#
# Disc length: 2599 seconds
#
# Revision: 0
# Processed by: cddbd v1.5.2PL0 Copyright (c) Steve Scherf et al.
# Submitted via: ExactAudioCopyFreeDBPlugin 1.0
#
DISCID=990a250b
DTITLE=Danny Woods - Back to the Beach
DYEAR=2011
DGENRE=Blues
TTITLE0=I Love You The Way You Are
TTITLE1=You've Got To Crawl (Before You Walk)
TTITLE2=Bad Case of Loving You
TTITLE3=Someday We'll Be Together
TTITLE4=Back to The Beach 
TTITLE5=She's Not Just Another Woman
TTITLE6=Together We Can 
TTITLE7=Handy Man 
TTITLE8=The Man My Daddy Was
TTITLE9=Hotline 
TTITLE10=I've Got To See You Again
EXTD=
EXTT0=
EXTT1=
EXTT2=
EXTT3=
EXTT4=
EXTT5=
EXTT6=
EXTT7=
EXTT8=
EXTT9=
EXTT10=
PLAYORDER=
